<svg xmlns="http://www.w3.org/2000/svg" xmlns:xlink="http://www.w3.org/1999/xlink" width="200" zoomAndPan="magnify" viewBox="0 0 150 30.000001" height="40" preserveAspectRatio="xMidYMid meet" version="1.0"><path fill="#bb9038" d="M 31.109375 24.082031 L 31.109375 9.855469 L 41.125 9.855469 L 41.125 12.777344 L 34.488281 12.777344 L 34.488281 15.421875 L 40.050781 15.421875 L 40.050781 18.121094 L 34.488281 18.121094 L 34.488281 21.121094 L 41.203125 21.121094 L 41.203125 24.082031 Z M 31.109375 24.082031 " fill-opacity="1" fill-rule="evenodd"/><path fill="#bb9038" d="M 42.660156 24.082031 L 42.660156 21.257812 L 48.988281 12.9375 L 42.898438 12.9375 L 42.898438 9.855469 L 53.082031 9.855469 L 53.082031 12.644531 L 46.785156 21 L 53.125 21 L 53.125 24.082031 Z M 42.660156 24.082031 " fill-opacity="1" fill-rule="evenodd"/><path fill="#bb9038" d="M 53.453125 24.082031 L 58.777344 9.855469 L 62.699219 9.855469 L 68.066406 24.082031 L 64.257812 24.082031 L 63.253906 21.191406 L 58.144531 21.191406 L 57.160156 24.082031 Z M 58.914062 18.378906 L 62.472656 18.378906 L 60.6875 13.457031 Z M 58.914062 18.378906 " fill-opacity="1" fill-rule="evenodd"/><path fill="#bb9038" d="M 69.34375 24.082031 L 69.34375 9.855469 L 72.679688 9.855469 L 78.53125 18.570312 L 78.53125 9.855469 L 81.8125 9.855469 L 81.8125 24.082031 L 78.476562 24.082031 L 72.609375 15.242188 L 72.609375 24.082031 Z M 69.34375 24.082031 " fill-opacity="1" fill-rule="evenodd"/><path fill="#bb9038" d="M 93.339844 24.082031 L 88.09375 9.855469 L 91.890625 9.855469 L 95.292969 19.789062 L 98.652344 9.855469 L 102.390625 9.855469 L 97.179688 24.082031 Z M 93.339844 24.082031 " fill-opacity="1" fill-rule="evenodd"/><path fill="#bb9038" d="M 101.296875 24.082031 L 106.617188 9.855469 L 110.539062 9.855469 L 115.910156 24.082031 L 112.101562 24.082031 L 111.09375 21.191406 L 105.984375 21.191406 L 105.003906 24.082031 Z M 106.753906 18.378906 L 110.316406 18.378906 L 108.527344 13.457031 Z M 106.753906 18.378906 " fill-opacity="1" fill-rule="evenodd"/><path fill="#bb9038" d="M 117.1875 24.082031 L 117.1875 9.855469 L 120.566406 9.855469 L 120.566406 15.917969 L 125.390625 9.855469 L 129.605469 9.855469 L 124.339844 16.382812 L 130.285156 24.082031 L 125.945312 24.082031 L 122.113281 18.933594 L 120.566406 20.695312 L 120.566406 24.082031 Z M 117.1875 24.082031 " fill-opacity="1" fill-rule="evenodd"/><path fill="#bb9038" d="M 131.628906 24.082031 L 131.628906 9.855469 L 141.011719 9.855469 L 141.011719 12.9375 L 135.007812 12.9375 L 135.007812 15.871094 L 140.378906 15.871094 L 140.378906 18.820312 L 135.007812 18.820312 L 135.007812 24.082031 Z M 131.628906 24.082031 " fill-opacity="1" fill-rule="evenodd"/><path fill="#bb9038" d="M 143.269531 9.855469 L 146.652344 9.855469 L 146.652344 24.082031 L 143.269531 24.082031 Z M 143.269531 9.855469 " fill-opacity="1" fill-rule="nonzero"/><path fill="#bb9038" d="M 10.96875 10.207031 C 10.96875 11.085938 11.375 11.796875 12.007812 12.441406 C 12.710938 13.164062 13.160156 13.34375 13.929688 13.851562 C 15.839844 15.117188 17.648438 16.628906 17.605469 19.148438 C 17.582031 20.546875 17.152344 21.84375 16.585938 23.03125 C 17.625 21.96875 18.257812 20.445312 18.238281 19.160156 C 18.203125 17.070312 17.140625 15.679688 15.660156 14.371094 C 14.734375 13.546875 13.792969 12.925781 12.800781 12 C 12.40625 11.628906 11.636719 10.792969 11.625 10.296875 C 11.625 10.09375 11.738281 9.898438 11.90625 9.796875 C 11.917969 10.046875 11.929688 10.308594 11.953125 10.554688 C 11.964844 10.679688 11.996094 10.78125 12.078125 10.90625 C 12.28125 11.1875 12.425781 11.324219 12.710938 11.605469 L 12.652344 7.609375 C 11.601562 8.046875 10.945312 9.097656 10.957031 10.207031 Z M 13.988281 8.941406 C 13.988281 7.992188 14.777344 6.289062 15.929688 5.519531 C 16.019531 5.769531 16.03125 7.011719 16.03125 7.507812 C 16.03125 8.648438 16.066406 9.789062 16.066406 10.925781 L 15.320312 9.96875 C 15.230469 9.855469 15.183594 9.742188 15.171875 9.5625 L 15.140625 8.140625 C 14.902344 8.386719 14.746094 8.703125 14.746094 9.097656 C 14.746094 9.492188 15.152344 10.035156 15.410156 10.398438 L 18.507812 14.539062 C 19.503906 15.871094 20.339844 17.601562 20.371094 19.28125 C 20.394531 20.457031 20.023438 21.449219 19.378906 22.421875 C 18.101562 24.363281 15.910156 26.046875 11.78125 24.882812 C 13.46875 25.164062 15.265625 24.882812 16.699219 24.058594 C 18.371094 23.097656 19.558594 21.28125 19.492188 19.25 C 19.433594 17.804688 19.09375 17.136719 18.191406 15.78125 C 17.027344 14.101562 15.726562 12.597656 14.699219 10.960938 C 14.292969 10.316406 13.941406 9.652344 13.976562 8.929688 Z M 13.75 15.488281 C 14.03125 15.488281 14.257812 15.714844 14.257812 15.996094 C 14.257812 16.277344 14.03125 16.503906 13.75 16.503906 C 13.46875 16.503906 13.242188 16.277344 13.242188 15.996094 C 13.242188 15.714844 13.46875 15.488281 13.75 15.488281 Z M 8.699219 18.425781 C 8.699219 18.671875 8.878906 18.84375 9.082031 18.851562 C 9.476562 18.886719 9.535156 18.390625 9.523438 18.1875 C 9.464844 18.234375 9.398438 18.355469 9.195312 18.324219 C 8.945312 18.277344 9.015625 17.972656 9.070312 17.816406 C 9.148438 17.613281 9.25 17.261719 9.308594 17.035156 C 9.320312 16.980469 9.308594 16.921875 9.261719 16.910156 C 9.207031 16.910156 9.171875 16.957031 9.160156 17 C 9.105469 17.195312 9.015625 17.476562 8.933594 17.714844 C 8.867188 17.9375 8.699219 18.164062 8.699219 18.402344 Z M 10.449219 19.734375 C 10.539062 19.800781 10.699219 19.972656 10.742188 20.164062 C 10.765625 20.265625 10.800781 20.242188 10.800781 20.230469 C 10.8125 20.128906 10.8125 20.105469 10.832031 20.027344 C 10.890625 19.835938 10.980469 19.574219 11.070312 19.453125 C 11.128906 19.363281 11.261719 19.28125 11.320312 19.417969 C 11.363281 19.53125 11.433594 19.667969 11.457031 19.734375 C 11.476562 19.789062 11.488281 19.859375 11.457031 19.902344 C 11.410156 19.972656 11.296875 19.925781 11.207031 19.890625 C 11.148438 19.871094 11.128906 19.890625 11.09375 19.9375 C 11.027344 20.050781 10.914062 20.320312 10.902344 20.546875 C 10.902344 20.546875 10.902344 20.59375 10.902344 20.613281 C 10.902344 20.660156 10.855469 20.648438 10.84375 20.636719 C 10.84375 20.613281 10.824219 20.601562 10.8125 20.601562 C 10.8125 20.683594 10.824219 20.808594 10.8125 20.886719 C 10.777344 21.03125 10.617188 21.011719 10.609375 20.863281 C 10.609375 20.75 10.628906 20.570312 10.539062 20.320312 C 10.472656 20.117188 10.402344 20.027344 10.222656 20.027344 C 10.167969 20.027344 10.121094 20.050781 10.085938 20.027344 C 10.066406 20.015625 10.054688 20.003906 10.054688 19.972656 C 10.054688 19.9375 10.042969 19.890625 10.085938 19.835938 C 10.15625 19.757812 10.1875 19.699219 10.246094 19.632812 C 10.28125 19.597656 10.335938 19.597656 10.371094 19.644531 C 10.402344 19.6875 10.371094 19.710938 10.414062 19.746094 Z M 10.257812 16.898438 C 10.324219 16.808594 10.371094 16.707031 10.496094 16.585938 C 10.628906 16.449219 10.789062 16.324219 10.855469 16.234375 C 11.230469 16.449219 11.207031 16.550781 11.457031 16.777344 C 11.332031 16.933594 10.890625 17.339844 10.878906 17.417969 C 10.699219 17.351562 10.402344 16.921875 10.257812 16.890625 Z M 14.53125 17.136719 C 14.597656 16.765625 14.675781 16.382812 14.777344 16.007812 C 14.902344 16.121094 15.0625 16.257812 15.171875 16.402344 C 15.273438 16.550781 15.285156 16.574219 15.296875 16.765625 L 15.320312 17.972656 C 15.164062 17.816406 14.6875 17.308594 14.539062 17.136719 Z M 16.609375 19.160156 C 16.597656 18.976562 16.53125 19 16.449219 18.886719 C 16.40625 18.820312 16.371094 18.808594 16.371094 18.59375 L 16.371094 17.679688 C 16.585938 17.925781 16.914062 18.480469 16.902344 19.046875 C 16.890625 19.441406 16.757812 19.824219 16.496094 20.195312 L 16.019531 19.8125 C 16.179688 19.6875 16.597656 19.339844 16.597656 19.148438 Z M 16.113281 14.496094 L 15.488281 13.964844 C 15.34375 13.839844 15.320312 13.773438 15.320312 13.582031 L 15.273438 12.328125 L 15.625 12.746094 L 15.917969 13.128906 C 16.089844 13.34375 16.113281 13.355469 16.113281 13.726562 Z M 15.523438 21.257812 C 15.613281 21.167969 15.714844 21.078125 15.785156 21.019531 C 15.875 21.078125 16.101562 21.257812 16.144531 21.324219 C 16.179688 21.652344 16.15625 22.398438 16.042969 23.054688 C 15.929688 23.6875 15.714844 24.226562 15.546875 24.398438 C 15.546875 23.347656 15.511719 22.320312 15.511719 21.269531 Z M 13.183594 8.261719 C 13.183594 7.835938 13.332031 7.101562 13.804688 6.976562 C 13.578125 7.425781 13.570312 8.476562 13.726562 9.5625 C 13.816406 10.195312 14.007812 11.640625 13.546875 12.125 C 13.683594 10.816406 13.207031 9.605469 13.183594 8.261719 Z M 9.070312 15.230469 C 9.070312 15.648438 9.375 16.042969 9.804688 16.042969 C 10.449219 16.042969 10.617188 15.375 10.609375 14.777344 C 10.507812 14.890625 10.222656 15.140625 9.90625 15.027344 C 9.523438 14.890625 9.636719 14.417969 9.738281 14.113281 L 10.199219 12.585938 C 10.222656 12.507812 10.210938 12.40625 10.121094 12.382812 C 9.996094 12.363281 9.953125 12.472656 9.917969 12.597656 C 9.78125 13.085938 9.613281 13.648438 9.398438 14.144531 C 9.230469 14.585938 9.058594 14.800781 9.058594 15.230469 Z M 15.839844 19.710938 C 15.714844 19.632812 15.488281 19.519531 15.488281 19.28125 L 15.46875 15.332031 C 15.582031 15.375 15.976562 15.738281 16.054688 15.882812 C 16.144531 16.042969 16.144531 16.066406 16.144531 16.257812 L 16.144531 19.453125 C 16.019531 19.566406 15.875 19.6875 15.839844 19.710938 Z M 12.109375 22.046875 C 13.082031 21.734375 14.304688 21.078125 15.0625 20.457031 C 15.105469 20.492188 15.582031 20.875 15.636719 20.910156 C 14.925781 21.664062 13.027344 22.691406 12.304688 23.019531 C 12.121094 22.75 12.078125 22.375 12.109375 22.039062 Z M 11.636719 23.234375 C 10.824219 23.515625 10.03125 23.347656 9.546875 22.851562 C 8.730469 22.039062 8.820312 20.511719 9.386719 19.464844 C 9.148438 20.390625 9.136719 21.890625 10.246094 22.242188 C 10.742188 22.398438 11.128906 22.332031 11.625 22.21875 C 11.578125 22.488281 11.558594 22.863281 11.625 23.234375 Z M 12.132812 20.289062 C 12.371094 17.757812 12.109375 15.027344 12.054688 12.800781 L 12.550781 13.207031 C 12.675781 13.308594 12.730469 13.445312 12.722656 13.648438 C 12.710938 15.230469 12.6875 16.796875 12.640625 18.367188 C 12.628906 18.957031 12.257812 20.003906 12.132812 20.289062 Z M 11.988281 23.890625 C 11.589844 23.277344 11.636719 22.117188 11.941406 21.4375 C 11.996094 21.324219 12.054688 21.144531 12.144531 21.15625 C 12.191406 21.15625 12.097656 21.574219 12.089844 21.621094 C 11.976562 22.09375 11.894531 22.816406 12.222656 23.234375 C 12.394531 23.449219 12.664062 23.574219 12.9375 23.574219 C 13.457031 23.574219 14 23.324219 14.4375 23.074219 C 14.835938 22.863281 15.183594 22.613281 15.410156 22.464844 L 15.410156 23.167969 C 14.789062 23.640625 14.019531 24.183594 13.285156 24.363281 C 12.824219 24.476562 12.28125 24.386719 11.976562 23.898438 Z M 13.367188 18.964844 C 13.355469 18.648438 13.375 17.78125 13.457031 17.566406 C 13.875 18.074219 14.394531 18.492188 14.992188 18.84375 C 15.09375 18.898438 15.152344 18.945312 15.183594 18.976562 C 15.242188 19.035156 15.21875 19.066406 15.164062 19.089844 C 15.105469 19.113281 15.027344 19.125 14.957031 19.148438 C 14.878906 19.167969 14.878906 19.203125 14.992188 19.28125 C 15.332031 19.574219 15.714844 19.847656 16.078125 20.085938 C 16.5625 20.410156 16.867188 20.761719 16.847656 21.371094 C 16.835938 21.8125 16.5625 22.242188 16.214844 22.5 C 16.234375 22.25 16.246094 22.003906 16.246094 21.765625 C 16.519531 21.460938 16.335938 21.269531 15.964844 20.976562 L 13.355469 18.945312 Z M 13.367188 18.964844 " fill-opacity="1" fill-rule="evenodd"/><path fill="#ca9633" d="M 25.640625 24.261719 C 25.652344 20.582031 25.660156 16.789062 24.566406 13.164062 C 24.25 12.113281 23.898438 11.277344 23.671875 10.757812 C 23.117188 9.515625 22.417969 8.320312 21.605469 7.203125 C 20.40625 5.566406 19.253906 4.527344 18.484375 3.835938 C 17.253906 2.730469 15.898438 1.726562 14.460938 0.855469 C 13.027344 1.726562 11.671875 2.71875 10.4375 3.835938 C 9.679688 4.527344 8.515625 5.566406 7.320312 7.203125 C 6.503906 8.320312 5.804688 9.515625 5.25 10.757812 C 5.011719 11.277344 4.675781 12.113281 4.359375 13.164062 C 3.261719 16.777344 3.273438 20.582031 3.285156 24.261719 C 3.285156 25.121094 3.285156 26 3.285156 26.859375 L 4.289062 26.859375 C 4.300781 26 4.289062 25.121094 4.289062 24.25 C 4.277344 20.648438 4.265625 16.921875 5.316406 13.457031 C 5.625 12.453125 5.949219 11.660156 6.164062 11.164062 C 6.695312 9.992188 7.351562 8.851562 8.132812 7.789062 C 9.273438 6.230469 10.382812 5.238281 11.105469 4.582031 C 12.144531 3.644531 13.261719 2.796875 14.460938 2.042969 C 15.648438 2.796875 16.777344 3.65625 17.816406 4.582031 C 18.554688 5.238281 19.660156 6.230469 20.789062 7.789062 C 21.570312 8.851562 22.226562 9.980469 22.757812 11.164062 C 22.984375 11.660156 23.3125 12.453125 23.605469 13.457031 C 24.65625 16.933594 24.644531 20.648438 24.632812 24.25 C 24.632812 25.109375 24.632812 26 24.632812 26.871094 L 25.640625 26.871094 C 25.628906 26 25.640625 25.109375 25.640625 24.261719 Z M 25.640625 24.261719 " fill-opacity="1" fill-rule="nonzero"/><path fill="#ca9633" d="M 25.640625 26.871094 L 25.640625 27.886719 L 3.261719 27.886719 L 3.261719 26.871094 Z M 25.640625 26.871094 " fill-opacity="1" fill-rule="nonzero"/></svg>